<?xml version="1.0" encoding="UTF-8" standalone="no"?>
<svg
   xmlns:dc="http://purl.org/dc/elements/1.1/"
   xmlns:cc="http://creativecommons.org/ns#"
   xmlns:rdf="http://www.w3.org/1999/02/22-rdf-syntax-ns#"
   xmlns:svg="http://www.w3.org/2000/svg"
   xmlns="http://www.w3.org/2000/svg"
   xmlns:sodipodi="http://sodipodi.sourceforge.net/DTD/sodipodi-0.dtd"
   xmlns:inkscape="http://www.inkscape.org/namespaces/inkscape"
   width="24"
   height="24"
   fill-rule="evenodd"
   clip-rule="evenodd"
   version="1.1"
   id="svg4"
   sodipodi:docname="fish-2.svg"
   inkscape:version="1.0.2 (e86c870879, 2021-01-15, custom)"
   inkscape:export-filename="C:\Users\rix133\Desktop\iconmonstr-fish-2.png"
   inkscape:export-xdpi="192"
   inkscape:export-ydpi="192">
  <metadata
     id="metadata10">
    <rdf:RDF>
      <cc:Work
         rdf:about="">
        <dc:format>image/svg+xml</dc:format>
        <dc:type
           rdf:resource="http://purl.org/dc/dcmitype/StillImage" />
        <dc:title></dc:title>
      </cc:Work>
    </rdf:RDF>
  </metadata>
  <defs
     id="defs8" />
  <sodipodi:namedview
     pagecolor="#ffffff"
     bordercolor="#666666"
     borderopacity="1"
     objecttolerance="10"
     gridtolerance="10"
     guidetolerance="10"
     inkscape:pageopacity="0"
     inkscape:pageshadow="2"
     inkscape:window-width="1559"
     inkscape:window-height="1041"
     id="namedview6"
     showgrid="false"
     inkscape:pagecheckerboard="true"
     inkscape:zoom="30.625"
     inkscape:cx="12"
     inkscape:cy="12"
     inkscape:window-x="0"
     inkscape:window-y="0"
     inkscape:window-maximized="0"
     inkscape:current-layer="svg4" />
  <path
     d="M22.819 11.51c-1.16-1.632-3.001-3.002-5.014-3.826-1.548 1.815-2.639 5.324-.159 8.423 2.178-1.091 4.091-2.908 5.173-4.597zm-6.105 5.001c-2.565-3.434-1.455-7.185.093-9.183-.896-.275-1.356-.341-1.779-.402-1.868-2.159-4.438-1.964-5.047-1.944.157.295.445.754.633 2.241-2.881.806-3.873 1.766-5.98 3.573-.393-.43-1.378-1.54-3.024-1.968.627 1.763.688 3.763.079 5.37 1.727-.379 2.817-1.84 2.974-2.014 2.201 2.282 3.161 3.4 5.952 4.415.051.995-.503 2.126-.634 2.374.685.022 3.213.204 5.072-1.975.513-.1.931-.203 1.661-.487zm7.286-5.028c-2.387 4.033-6.093 5.927-8.417 6.428-1.233 1.371-3.017 2.066-5.306 2.066-.715 0-1.234-.06-2.101-.141.632-.594 1.172-1.573 1.362-2.573-2.249-.915-3.692-2.408-4.863-3.629-2.031 1.953-4.087 1.655-4.675 1.655.361-.627 2.199-3.713 0-7.592.552.009 2.661-.159 4.702 1.726 1.207-1.04 2.571-2.204 4.798-2.917-.229-1.005-.631-1.692-1.325-2.387.72-.067 1.433-.119 2.13-.119 1.948 0 3.768.404 5.228 1.99 4.479.719 7.218 3.587 8.467 5.493zm-3.032-.505c0 .552-.448 1-1 1-.551 0-1-.448-1-1 0-.551.449-1 1-1 .552 0 1 .449 1 1z"
     id="path2"
     style="fill:#000000" />
  <path
     style="fill:#ffffff;stroke:none;stroke-width:0.326531"
     d="m 10.150729,18.657884 c 0.296642,-0.669928 0.494442,-1.460705 0.471733,-1.885928 l -0.01022,-0.191309 -0.408163,-0.160008 C 9.6053897,16.18594 8.6768235,15.716196 8.2285714,15.421266 7.3203556,14.823701 6.7729567,14.333541 5.1279918,12.644898 4.8786929,12.38898 4.6660618,12.179592 4.6554782,12.179592 c -0.010584,0 -0.120031,0.118579 -0.2432167,0.26351 -0.437042,0.514188 -1.0790787,1.027397 -1.6862861,1.347922 -0.2488642,0.131368 -0.690976,0.304341 -0.916878,0.358722 l -0.08478,0.02041 0.1091178,-0.359916 C 2.2495989,12.437554 2.2224069,10.77846 1.7586104,9.2448888 1.6968269,9.0405982 1.6505584,8.8694805 1.6557915,8.8646273 c 0.00523,-0.00485 0.1270656,0.031241 0.2707391,0.080209 0.8669171,0.2954688 1.5596224,0.7356323 2.3020408,1.4627787 0.2244898,0.219872 0.4122609,0.399943 0.4172692,0.400158 0.00501,2.28e-4 0.2833333,-0.23594 0.6185006,-0.524788 C 7.2638981,8.559759 8.2516398,7.9747334 10.171429,7.3765841 10.413878,7.3010441 10.617328,7.2351231 10.62354,7.2300929 10.641795,7.2153116 10.532092,6.5382643 10.462584,6.2367347 10.373239,5.8491481 10.24677,5.4752505 10.117437,5.2163265 L 10.007342,4.9959184 h 0.504861 c 1.678753,0 3.096408,0.5481294 4.187286,1.6189943 l 0.335351,0.3291984 0.351968,0.057142 c 0.341683,0.055472 1.108177,0.239354 1.291488,0.3098276 l 0.09054,0.034808 -0.159344,0.2209329 c -0.792721,1.0991185 -1.305844,2.5372404 -1.415738,3.9678724 -0.12154,1.582238 0.320047,3.229969 1.230543,4.591629 0.136523,0.204172 0.243786,0.375659 0.238362,0.381083 -0.03503,0.03503 -0.923762,0.315458 -1.23409,0.389402 l -0.37551,0.08947 -0.391837,0.380328 c -0.717367,0.696297 -1.468607,1.124577 -2.416326,1.377542 -0.527352,0.14076 -0.93802,0.195736 -1.624761,0.217505 l -0.612516,0.01942 z"
     id="path835" />
  <path
     style="fill:#ffffff;stroke:none;stroke-width:0.326531"
     d="m 17.450583,15.811396 c -0.564538,-0.782027 -0.93823,-1.613473 -1.132471,-2.519694 -0.0817,-0.38118 -0.08795,-0.466429 -0.08863,-1.210069 -6.48e-4,-0.707164 0.008,-0.843056 0.07434,-1.171026 0.228507,-1.1293817 0.758599,-2.2968225 1.383764,-3.0475127 l 0.12761,-0.1532322 0.251586,0.1078478 c 0.6563,0.2813369 1.637278,0.832959 2.206795,1.2409213 0.855991,0.6131732 1.695771,1.3933828 2.233367,2.0749418 l 0.295308,0.374388 -0.192951,0.278673 c -0.984898,1.422451 -2.496051,2.833643 -4.062361,3.79364 -0.354674,0.217381 -0.844451,0.485355 -0.884945,0.484183 -0.01614,-4.66e-4 -0.111272,-0.114344 -0.211411,-0.253061 z m 3.002354,-3.942871 c 0.429391,-0.233703 0.622623,-0.725347 0.477352,-1.214528 -0.06235,-0.209956 -0.292915,-0.471891 -0.518612,-0.589173 -0.142228,-0.073908 -0.207637,-0.086666 -0.44433,-0.086666 -0.236693,0 -0.302103,0.012758 -0.44433,0.086666 -0.80172,0.41661 -0.735787,1.559525 0.108091,1.873684 0.08039,0.02993 0.21599,0.04245 0.385623,0.0356 0.214767,-0.0087 0.292898,-0.02758 0.436206,-0.10558 z"
     id="path837" />
</svg>
